<svg xmlns="http://www.w3.org/2000/svg" version="1.1" xmlns:xlink="http://www.w3.org/1999/xlink" xmlns:svgjs="http://svgjs.com/svgjs" width="1440" height="200" preserveAspectRatio="none" viewBox="0 0 1440 200"><g mask="url(&quot;#SvgjsMask1010&quot;)" fill="none"><rect width="1440" height="200" x="0" y="0" fill="url(#SvgjsLinearGradient1011)"></rect><path d="M1597.16 91.21C1467.73 91.36 1341.9 159.35 1083.91 159.21 825.91 159.07 706.13-12.64 570.65-14.99" stroke="rgba(51,121,194,0.58)" stroke-width="2"></path><path d="M1479.57 44.12C1301.95 44.15 1125.31 92.13 770.7 92.12 416.09 92.11 240.54 0.11 61.83-0.08" stroke="rgba(51,121,194,0.58)" stroke-width="2"></path><path d="M1644.74 162.31C1492.07 162.28 1343.92 116.87 1035.8 116.31 727.69 115.75 583.24-25.71 426.87-26.66" stroke="rgba(51,121,194,0.58)" stroke-width="2"></path><path d="M1621.43 143.66C1472.44 143.42 1330.1 56.17 1032.01 55.66 733.92 55.15 591.69-35.07 442.59-35.34" stroke="rgba(51,121,194,0.58)" stroke-width="2"></path><path d="M1594.64 151.9C1486.03 151.82 1383.6 102.89 1163.07 101.9 942.54 100.91 844.32-28.73 731.5-30.2" stroke="rgba(51,121,194,0.58)" stroke-width="2"></path></g><defs><mask id="SvgjsMask1010"><rect width="1440" height="200" fill="#ffffff"></rect></mask><linearGradient x1="21.53%" y1="-155%" x2="78.47%" y2="255%" gradientUnits="userSpaceOnUse" id="SvgjsLinearGradient1011"><stop stop-color="#0e2a47" offset="0"></stop><stop stop-color="#00459e" offset="1"></stop></linearGradient></defs></svg>